<svg width="16" height="15" viewBox="0 0 16 15" fill="none" xmlns="http://www.w3.org/2000/svg">
<path d="M15.8624 3.17305C15.7702 2.81259 15.6278 2.46682 15.4395 2.14582C15.2587 1.81189 15.0274 1.50777 14.7539 1.24415C14.3573 0.84939 13.8876 0.535398 13.3711 0.319647C12.3313 -0.106549 11.1653 -0.106549 10.1256 0.319647C9.63734 0.526048 9.18878 0.815706 8.79995 1.17567L8.74281 1.24415L8 1.98603L7.25719 1.24415L7.20005 1.17567C6.81122 0.815706 6.36265 0.526048 5.87442 0.319647C4.83466 -0.106549 3.66866 -0.106549 2.62891 0.319647C2.11235 0.535398 1.64271 0.84939 1.24614 1.24415C0.703727 1.77126 0.319761 2.4394 0.137634 3.17305C0.0407427 3.54561 -0.00538464 3.92952 0.000499486 4.3144C0.000499486 4.67622 0.0462109 5.03688 0.137634 5.38728C0.233438 5.74115 0.371567 6.08221 0.549037 6.40309C0.740699 6.73295 0.975087 7.03613 1.24614 7.30477L8 14.0502L14.7539 7.30477C15.0247 7.03883 15.2567 6.73409 15.4395 6.40309C15.8107 5.76976 16.0041 5.04824 15.9995 4.3144C16.0054 3.92952 15.9593 3.5456 15.8624 3.17305ZM14.7196 5.03346C14.5827 5.55497 14.3107 6.03129 13.9311 6.41451L7.97714 12.3496L2.02323 6.41451C1.82921 6.21935 1.6603 6.00081 1.5204 5.76393C1.38876 5.52958 1.2852 5.28058 1.21185 5.02205C1.1533 4.76355 1.12265 4.49953 1.12043 4.23451C1.12198 3.96191 1.15263 3.69025 1.21185 3.42414C1.28305 3.16487 1.38672 2.91561 1.5204 2.68226C1.65754 2.44258 1.82667 2.22572 2.02323 2.03169C2.31681 1.7424 2.6617 1.51018 3.04031 1.34687C3.80325 1.04204 4.65436 1.04204 5.4173 1.34687C5.79442 1.50324 6.13497 1.73265 6.42295 2.02027L7.97714 3.58393L9.53133 2.02027C9.81911 1.73214 10.1608 1.50333 10.537 1.34687C11.2999 1.04204 12.151 1.04204 12.914 1.34687C13.2922 1.51008 13.6374 1.74292 13.9311 2.03169C14.1299 2.22001 14.2967 2.43915 14.4225 2.68226C14.6871 3.14846 14.825 3.67575 14.8224 4.21168C14.838 4.48746 14.8149 4.76406 14.7539 5.03346H14.7196Z" fill="white"/>
</svg>
